# xmcd
# 
# Track frame offsets:
#     150
#     20094
#     43274
#     65199
#     82865
#     103082
#     126489
#     147646
#     166796
#     189795
#     207735
#     225541
# 
# Disc length: 3319
# 
# Revision: 0
# Processed by: cddbd v1.5.2PL0 Copyright (c) Steve Scherf et al.
# Submitted via: fre:ac v1.0.31
# 
DISCID=b10cf50c
DTITLE=メロキュア - melodic super hard cure
DYEAR=2015
DGENRE=Anime
TTITLE0=1st Priority (メロキュア meets 末光篤 a.k.a. SUEMITSU and THE SUEMITS)
TTITLE1=Agape(メロキュア meets ミト and k2)
TTITLE2=ホーム ＆ アウェイ (メロキュア meets 西脇辰弥 again)
TTITLE3=ふたりのせかい (メロキュア meets 川口圭太)
TTITLE4=Agepe (水の惑星 version)
TTITLE5=So far. so dear (acoustic version)
TTITLE6=Agepe (switched edition)
TTITLE7=笑顔の連鎖
TTITLE8=ボクのキモチ
TTITLE9=夏の向こう側
TTITLE10=ちいさなうた
TTITLE11=my favoritz
EXTD=
EXTT0=
EXTT1=
EXTT2=
EXTT3=
EXTT4=
EXTT5=
EXTT6=
EXTT7=
EXTT8=
EXTT9=
EXTT10=
EXTT11=
PLAYORDER=
